{
    "asset": {
        "generator": "FBX2glTF v0.9.7",
        "version": "2.0"
    },
    "scene": 0,
    "buffers": [
        {
            "byteLength": 12576,
            "uri": "buffer.bin"
        }
    ],
    "bufferViews": [
        {
            "buffer": 0,
            "byteLength": 1440,
            "byteOffset": 0,
            "target": 34963
        },
        {
            "buffer": 0,
            "byteLength": 2784,
            "byteOffset": 1440,
            "target": 34962
        },
        {
            "buffer": 0,
            "byteLength": 2784,
            "byteOffset": 4224,
            "target": 34962
        },
        {
            "buffer": 0,
            "byteLength": 3712,
            "byteOffset": 7008,
            "target": 34962
        },
        {
            "buffer": 0,
            "byteLength": 1856,
            "byteOffset": 10720,
            "target": 34962
        }
    ],
    "scenes": [
        {
            "name": "Root Scene",
            "nodes": [
                0
            ]
        }
    ],
    "accessors": [
        {
            "componentType": 5123,
            "type": "SCALAR",
            "count": 720,
            "bufferView": 0,
            "byteOffset": 0
        },
        {
            "componentType": 5126,
            "type": "VEC3",
            "count": 232,
            "bufferView": 1,
            "byteOffset": 0,
            "min": [
                -0.0382594391703606,
                -0.0432746075093746,
                -0.555261015892029
            ],
            "max": [
                0.0382770784199238,
                0.0230231080204248,
                0.534773588180542
            ]
        },
        {
            "componentType": 5126,
            "type": "VEC3",
            "count": 232,
            "bufferView": 2,
            "byteOffset": 0
        },
        {
            "componentType": 5126,
            "type": "VEC4",
            "count": 232,
            "bufferView": 3,
            "byteOffset": 0
        },
        {
            "componentType": 5126,
            "type": "VEC2",
            "count": 232,
            "bufferView": 4,
            "byteOffset": 0
        }
    ],
    "images": [
        {
            "name": "Longbow_Texture.png",
            "uri": "Longbow_Texture.png"
        }
    ],
    "samplers": [
        {}
    ],
    "textures": [
        {
            "name": "Longbow_Texture_jpg",
            "sampler": 0,
            "source": 0
        }
    ],
    "materials": [
        {
            "name": "Longbow__Longbow_Texture_jpg",
            "alphaMode": "OPAQUE",
            "extras": {
                "fromFBX": {
                    "shadingModel": "Lambert",
                    "isTruePBR": false
                }
            },
            "pbrMetallicRoughness": {
                "baseColorTexture": {
                    "index": 0,
                    "texCoord": 0
                },
                "baseColorFactor": [
                    1.0,
                    1.0,
                    1.0,
                    1.0
                ],
                "metallicFactor": 0.200000002980232,
                "roughnessFactor": 0.800000011920929
            }
        }
    ],
    "meshes": [
        {
            "name": "Arrow",
            "primitives": [
                {
                    "material": 0,
                    "mode": 4,
                    "attributes": {
                        "COLOR_0": 3,
                        "NORMAL": 2,
                        "POSITION": 1,
                        "TEXCOORD_0": 4
                    },
                    "indices": 0
                }
            ]
        }
    ],
    "nodes": [
        {
            "name": "RootNode",
            "translation": [
                0.0,
                0.0,
                0.0
            ],
            "rotation": [
                0.0,
                0.0,
                0.0,
                1.0
            ],
            "scale": [
                1.0,
                1.0,
                1.0
            ],
            "children": [
                1
            ]
        },
        {
            "name": "Arrow",
            "translation": [
                0.0300284326076508,
                0.0,
                0.0
            ],
            "rotation": [
                -0.707106828689575,
                0.0,
                0.0,
                0.707106709480286
            ],
            "scale": [
                1.0,
                1.0,
                1.0
            ],
            "mesh": 0
        }
    ]
}